# xmcd CD database file
#
# Track frame offsets:
#	150
#	26665
#	50725
#	76140
#	95122
#	113320
#	135702
#	145000
#	161315
#	181695
#
# Disc length: 2762 seconds
#
# Revision: 0
# Processed by: cddbd v1.4PL0 Copyright (c) Steve Scherf et al.
# Submitted via: CDex 1.50beta8
#
DISCID=750ac80a
DTITLE=Lentävä siemen - Lentävä siemen
DYEAR=1991
DGENRE=Jazz
TTITLE0=Kalat on meren kasviita
TTITLE1=Kaks' nurin
TTITLE2=Hämähäkkinaisen suudelma
TTITLE3=Vuonojen tytär
TTITLE4=Portlandin sementtiä
TTITLE5=Rikoh ja rangaihtuh
TTITLE6=Herramme Ööbout
TTITLE7=Jarrumies
TTITLE8=Kun olin Tane
TTITLE9=Niillä rajoilla
EXTD=YEAR: 1991
EXTT0=
EXTT1=
EXTT2=
EXTT3=
EXTT4=
EXTT5=
EXTT6=
EXTT7=
EXTT8=
EXTT9=
PLAYORDER=
